<?xml version="1.0" encoding="UTF-8"?><svg id="Layer_1" xmlns="http://www.w3.org/2000/svg" viewBox="0 0 900 900"><defs><style>.cls-1{fill:#2aace2;}</style></defs><path class="cls-1" d="m435.12,487.89c3.69-3.87,3.54-10-.33-13.69l-56.99-54.34c-3.87-3.69-10-3.54-13.69.33-3.69,3.87-3.54,10,.33,13.69l56.99,54.34c1.87,1.79,4.28,2.67,6.68,2.67,2.56,0,5.11-1.01,7.01-3Z"/><path class="cls-1" d="m474.87,420.55c3.66-3.9,3.47-10.02-.43-13.68l-43.19-40.55c-3.9-3.66-10.03-3.47-13.68.43-3.66,3.9-3.47,10.03.43,13.68l43.19,40.55c1.87,1.75,4.25,2.62,6.62,2.62,2.58,0,5.16-1.03,7.06-3.05Z"/><path class="cls-1" d="m374.08,522.46c3.66-3.9,3.47-10.03-.43-13.68l-43.19-40.55c-3.9-3.66-10.02-3.47-13.68.43-3.66,3.9-3.47,10.03.43,13.68l43.19,40.55c1.87,1.75,4.25,2.62,6.62,2.62,2.58,0,5.15-1.03,7.06-3.05Z"/><path class="cls-1" d="m765.1,294.2l-168.03-168.03c-3.78-3.78-9.91-3.78-13.69,0-3.78,3.78-3.78,9.91,0,13.69l39.36,39.36-68.23,69.82c-3.74,3.82-3.67,9.95.16,13.69,1.88,1.84,4.32,2.76,6.77,2.76s5.03-.97,6.92-2.92l68.07-69.66,61.26,61.26-67.38,70.85c-3.68,3.87-3.53,10,.34,13.69,1.87,1.78,4.27,2.67,6.67,2.67,2.56,0,5.11-1.01,7.02-3.01l67.05-70.49,40.02,40.02c1.89,1.89,4.37,2.84,6.85,2.84s4.96-.95,6.85-2.84c3.78-3.78,3.78-9.91,0-13.69Z"/><path class="cls-1" d="m715.98,461.68L439.2,187.93c-3.8-3.76-9.93-3.73-13.69.08-3.76,3.8-3.73,9.93.08,13.69l73.97,73.16-255.31,255.31,4.23,104.31-113.8,121.45c-3.66,3.9-3.46,10.03.45,13.68,1.87,1.75,4.25,2.62,6.62,2.62,2.58,0,5.16-1.03,7.07-3.06l113.58-121.22,102.91,3.19,255.93-255.93,81.13,80.24c1.89,1.87,4.35,2.8,6.81,2.8s4.99-.96,6.88-2.87c3.76-3.8,3.73-9.93-.08-13.69Zm-358.45,169.85l-89.91-2.79-3.69-90.88,248.53-248.53,93.63,93.63-248.57,248.57Z"/></svg>