<?xml version="1.0" encoding="UTF-8"?><svg id="Layer_1" xmlns="http://www.w3.org/2000/svg" viewBox="0 0 900 900"><defs><style>.cls-1{fill:#2aace2;}</style></defs><path id="rect80420" class="cls-1" d="m496.11,132.27c-24.92-11.4-54.69-.33-66.09,24.6-8.66,18.92-4.34,40.6,9.13,54.94l-206.4,451.13c-24.33,53.18-.91,116.11,52.27,140.44,53.18,24.33,116.11.91,140.44-52.27l206.4-451.13c19.66.81,38.89-10.1,47.55-29.01,11.4-24.92.33-54.69-24.6-66.09l-158.7-72.61Zm-10.37,22.67l158.7,72.61c12.76,5.84,18.14,20.29,12.3,33.04-5.09,11.13-16.76,16.64-28.12,13.99l-168.16-76.94c-9.43-6.86-12.87-19.28-7.77-30.41,5.84-12.76,20.29-18.14,33.04-12.3Zm-25.45,70.61l147.37,67.42-64.5,140.97c-38.53-2.96-49.03-16.88-63.52-35.14-11.91-15.01-26.34-33.55-54.3-44.66-6.28-2.49-13.26-4.61-21.04-6.22l55.99-122.37Zm-38.34,153.55c18.46,8.31,26.79,20.9,38.14,35.2,14.07,17.73,33.15,37.3,72.24,43.31l-129.54,283.13c-18.77,41.02-66.38,58.74-107.4,39.97-41.02-18.77-58.74-66.38-39.97-107.4l7.78-17,39.68,18.15c6.26,2.86,13.66.11,16.52-6.15,2.86-6.26.11-13.66-6.15-16.52l-39.68-18.15,20.75-45.34,39.68,18.15c6.26,2.86,13.66.11,16.52-6.15,2.86-6.26.11-13.66-6.15-16.52l-39.68-18.15,20.75-45.34,39.68,18.15c6.26,2.86,13.66.11,16.52-6.15,2.86-6.26.11-13.66-6.15-16.52l-39.68-18.15,20.75-45.34,39.68,18.15c6.26,2.86,13.66.11,16.52-6.15,2.86-6.26.11-13.66-6.15-16.52l-39.68-18.15,26.66-58.27c11.66,1.8,20.89,4.42,28.36,7.78Z"/></svg>