<?xml version="1.0" encoding="UTF-8"?><svg id="Layer_1" xmlns="http://www.w3.org/2000/svg" viewBox="0 0 900 900"><defs><style>.cls-1{fill:#2aace2;}</style></defs><path class="cls-1" d="m759.79,332.88h-75.15v-42.94h21.47c5.9,0,10.74-4.83,10.74-10.74v-42.94c0-5.9-4.83-10.74-10.74-10.74h-139.57v-42.94c0-5.9-4.83-10.74-10.74-10.74h-193.25c-5.9,0-10.74,4.83-10.74,10.74v42.94h-139.57c-5.9,0-10.74,4.83-10.74,10.74v42.94c0,5.9,4.83,10.74,10.74,10.74h21.47v42.94h-75.15c-5.9,0-10.74,4.83-10.74,10.74v440.18c0,5.9,4.83,10.74,10.74,10.74h601.23c5.9,0,10.74-4.83,10.74-10.74v-440.18c0-5.9-4.83-10.74-10.74-10.74Zm-64.42-85.89v21.47h-128.83v-21.47h128.83Zm-322.09-53.68h171.78v171.78h-171.78v-171.78Zm-150.31,53.68h128.83v21.47h-128.83v-21.47Zm-53.68,107.36h64.42v418.71h-64.42v-418.71Zm236.2,418.71v-171.78h107.36v171.78h-107.36Zm128.83,0v-182.52c0-5.9-4.83-10.74-10.74-10.74h-128.83c-5.9,0-10.74,4.83-10.74,10.74v182.52h-128.83v-483.13h96.63v85.89c0,5.9,4.83,10.74,10.74,10.74h193.25c5.9,0,10.74-4.83,10.74-10.74v-85.89h96.63v483.13h-128.83Zm214.72,0h-64.42v-418.71h64.42v418.71Z"/><path class="cls-1" d="m405.5,311.41h21.47v21.47c0,5.9,4.83,10.74,10.74,10.74h42.94c5.9,0,10.74-4.83,10.74-10.74v-21.47h21.47c5.9,0,10.74-4.83,10.74-10.74v-42.94c0-5.9-4.83-10.74-10.74-10.74h-21.47v-21.47c0-5.9-4.83-10.74-10.74-10.74h-42.94c-5.9,0-10.74,4.83-10.74,10.74v21.47h-21.47c-5.9,0-10.74,4.83-10.74,10.74v42.94c0,5.9,4.83,10.74,10.74,10.74Zm10.74-42.94h21.47c5.9,0,10.74-4.83,10.74-10.74v-21.47h21.47v21.47c0,5.9,4.83,10.74,10.74,10.74h21.47v21.47h-21.47c-5.9,0-10.74,4.83-10.74,10.74v21.47h-21.47v-21.47c0-5.9-4.83-10.74-10.74-10.74h-21.47v-21.47Z"/><path class="cls-1" d="m341.08,408.04h-42.94c-5.9,0-10.74,4.83-10.74,10.74v42.94c0,5.9,4.83,10.74,10.74,10.74h42.94c5.9,0,10.74-4.83,10.74-10.74v-42.94c0-5.9-4.83-10.74-10.74-10.74Zm-10.74,42.94h-21.47v-21.47h21.47v21.47Z"/><path class="cls-1" d="m620.22,408.04h-42.94c-5.9,0-10.74,4.83-10.74,10.74v42.94c0,5.9,4.83,10.74,10.74,10.74h42.94c5.9,0,10.74-4.83,10.74-10.74v-42.94c0-5.9-4.83-10.74-10.74-10.74Zm-10.74,42.94h-21.47v-21.47h21.47v21.47Z"/><path class="cls-1" d="m341.08,493.93h-42.94c-5.9,0-10.74,4.83-10.74,10.74v42.94c0,5.9,4.83,10.74,10.74,10.74h42.94c5.9,0,10.74-4.83,10.74-10.74v-42.94c0-5.9-4.83-10.74-10.74-10.74Zm-10.74,42.94h-21.47v-21.47h21.47v21.47Z"/><path class="cls-1" d="m437.7,408.04h-42.94c-5.9,0-10.74,4.83-10.74,10.74v42.94c0,5.9,4.83,10.74,10.74,10.74h42.94c5.9,0,10.74-4.83,10.74-10.74v-42.94c0-5.9-4.83-10.74-10.74-10.74Zm-10.74,42.94h-21.47v-21.47h21.47v21.47Z"/><path class="cls-1" d="m437.7,493.93h-42.94c-5.9,0-10.74,4.83-10.74,10.74v42.94c0,5.9,4.83,10.74,10.74,10.74h42.94c5.9,0,10.74-4.83,10.74-10.74v-42.94c0-5.9-4.83-10.74-10.74-10.74Zm-10.74,42.94h-21.47v-21.47h21.47v21.47Z"/><path class="cls-1" d="m534.33,408.04h-42.94c-5.9,0-10.74,4.83-10.74,10.74v42.94c0,5.9,4.83,10.74,10.74,10.74h42.94c5.9,0,10.74-4.83,10.74-10.74v-42.94c0-5.9-4.83-10.74-10.74-10.74Zm-10.74,42.94h-21.47v-21.47h21.47v21.47Z"/><path class="cls-1" d="m534.33,493.93h-42.94c-5.9,0-10.74,4.83-10.74,10.74v42.94c0,5.9,4.83,10.74,10.74,10.74h42.94c5.9,0,10.74-4.83,10.74-10.74v-42.94c0-5.9-4.83-10.74-10.74-10.74Zm-10.74,42.94h-21.47v-21.47h21.47v21.47Z"/><path class="cls-1" d="m620.22,493.93h-42.94c-5.9,0-10.74,4.83-10.74,10.74v42.94c0,5.9,4.83,10.74,10.74,10.74h42.94c5.9,0,10.74-4.83,10.74-10.74v-42.94c0-5.9-4.83-10.74-10.74-10.74Zm-10.74,42.94h-21.47v-21.47h21.47v21.47Z"/><path class="cls-1" d="m341.08,579.82h-42.94c-5.9,0-10.74,4.83-10.74,10.74v42.94c0,5.9,4.83,10.74,10.74,10.74h42.94c5.9,0,10.74-4.83,10.74-10.74v-42.94c0-5.9-4.83-10.74-10.74-10.74Zm-10.74,42.94h-21.47v-21.47h21.47v21.47Z"/><path class="cls-1" d="m620.22,579.82h-42.94c-5.9,0-10.74,4.83-10.74,10.74v42.94c0,5.9,4.83,10.74,10.74,10.74h42.94c5.9,0,10.74-4.83,10.74-10.74v-42.94c0-5.9-4.83-10.74-10.74-10.74Zm-10.74,42.94h-21.47v-21.47h21.47v21.47Z"/><path class="cls-1" d="m341.08,665.71h-42.94c-5.9,0-10.74,4.83-10.74,10.74v42.94c0,5.9,4.83,10.74,10.74,10.74h42.94c5.9,0,10.74-4.83,10.74-10.74v-42.94c0-5.9-4.83-10.74-10.74-10.74Zm-10.74,42.94h-21.47v-21.47h21.47v21.47Z"/><path class="cls-1" d="m620.22,665.71h-42.94c-5.9,0-10.74,4.83-10.74,10.74v42.94c0,5.9,4.83,10.74,10.74,10.74h42.94c5.9,0,10.74-4.83,10.74-10.74v-42.94c0-5.9-4.83-10.74-10.74-10.74Zm-10.74,42.94h-21.47v-21.47h21.47v21.47Z"/></svg>