<?xml version="1.0" encoding="UTF-8"?><svg id="Layer_1" xmlns="http://www.w3.org/2000/svg" viewBox="0 0 900 900"><defs><style>.cls-1{fill:#2aace2;}</style></defs><path class="cls-1" d="m578.03,491.78c-12.58,0-24.8,1.58-36.46,4.56-22.02-20.46-49.78-33.5-79.41-37.4v-18.44c32.25-17.04,54.51-50.99,57.05-87.35,9.62-9.29,16.45-21.31,19.35-34.25,23.97-87.36-36.07-158.53-122.25-157.82h-59.66c-38.02-1.94-65.59,36.41-59.09,65.66-8.57,5.52-14.55,13.41-17.82,23.51-11.72,36.19,17.04,90.83,22.92,101.41,2.06,36.28,23.58,70.31,55.4,87.88v19.37c-70.35,8.01-127.19,73.17-125.9,144.14v151.42c0,5.15,4.18,9.32,9.33,9.32h141.54c5.15,0,9.33-4.17,9.33-9.32s-4.18-9.32-9.33-9.32h-52.86l.02-150.57c0-5.15-4.18-9.32-9.33-9.32s-9.33,4.17-9.33,9.32v35.82h-60.72v-27.35c0-62.89,46.36-116.06,107.25-125.28v12.92c0,28.75,23.35,52.14,52.06,52.14s52.06-23.39,52.06-52.14v-12.94c21.47,3.26,41.72,12.06,58.82,25.51-49.87,24.43-87.32,103.35-89.97,134.89-2.65,31.53,67.08,146.18,147.04,146.36,81.08.19,147.04-65.66,147.04-146.36s-65.96-146.36-147.03-146.36h0Zm-266.54,157.26v96.1h-60.7v-96.1h60.7Zm-14.03-393.06c2.41-7.42,7.11-12.59,14.38-15.82,4.26-1.89,6.45-6.69,5.15-11.17-6.25-14.24,4.93-50.35,39.63-49.26h59.66c72.77.41,125.36,54.87,104.05,135.09-1.28,5.73-3.63,11.22-6.86,16.17l-30.93-81.26c-2-5.68-9.59-7.88-14.32-4.14-29.77,27.33-89.95,17.63-114.48-.33-4.74-3.29-11.88-1.01-13.83,4.43l-29.4,76.09c-9.33-20.8-19.27-50.71-13.07-69.8h0Zm146.04,234.71c0,18.47-14.99,33.49-33.41,33.49s-33.41-15.02-33.41-33.49v-42.91c10.93,3.63,22.47,5.55,34.28,5.55,11.19,0,22.13-1.72,32.54-4.99v42.35h0Zm-32.54-56.01c-47.9,0-86.96-37.09-89.76-84.77l32.26-83.49c32.24,17.88,84.32,21.94,115.82.88l31.43,82.59c-2.78,47.69-41.85,84.79-89.75,84.79h0Zm167.07,331.17c-70.79,0-128.39-57.29-128.39-127.71s57.59-127.71,128.39-127.71,128.38,57.29,128.38,127.71-57.59,127.71-128.38,127.71Z"/><path class="cls-1" d="m600.92,731.38h-45.78c-5.15,0-9.33-4.17-9.33-9.32v-51.71h-51.71c-5.15,0-9.33-4.17-9.33-9.32v-45.77c0-5.15,4.18-9.32,9.33-9.32h51.71v-51.71c0-5.15,4.18-9.32,9.33-9.32h45.78c5.15,0,9.33,4.17,9.33,9.32v51.71h51.72c5.15,0,9.33,4.17,9.33,9.32v45.77c0,5.15-4.18,9.32-9.33,9.32h-51.72v51.71c0,5.15-4.18,9.32-9.33,9.32Zm-36.46-18.65h27.13v-51.71c0-5.15,4.18-9.32,9.33-9.32h51.72v-27.13h-51.72c-5.15,0-9.33-4.17-9.33-9.32v-51.71h-27.13v51.71c0,5.15-4.18,9.32-9.33,9.32h-51.71v27.13h51.71c5.15,0,9.33,4.17,9.33,9.32v51.71Z"/><circle class="cls-1" cx="431.7" cy="754.47" r="11.99"/><path class="cls-1" d="m578.03,491.78c-12.58,0-24.84,1.44-36.46,4.56-11.7,3.13-10.56,2.65-20.6,6.92-43.23,18.36-89.97,74.32-89.97,134.89,0,80.7,65.96,146.36,147.04,146.36s147.04-65.66,147.04-146.36-65.96-146.36-147.03-146.36Zm0,274.07c-70.79,0-128.39-57.29-128.39-127.71s57.59-127.71,128.39-127.71,128.38,57.29,128.38,127.71-57.59,127.71-128.38,127.71Z"/><path class="cls-1" d="m600.92,731.38h-45.78c-5.15,0-9.33-4.17-9.33-9.32v-51.71h-51.71c-5.15,0-9.33-4.17-9.33-9.32v-45.77c0-5.15,4.18-9.32,9.33-9.32h51.71v-51.71c0-5.15,4.18-9.32,9.33-9.32h45.78c5.15,0,9.33,4.17,9.33,9.32v51.71h51.72c5.15,0,9.33,4.17,9.33,9.32v45.77c0,5.15-4.18,9.32-9.33,9.32h-51.72v51.71c0,5.15-4.18,9.32-9.33,9.32Zm-36.46-18.65h27.13v-51.71c0-5.15,4.18-9.32,9.33-9.32h51.72v-27.13h-51.72c-5.15,0-9.33-4.17-9.33-9.32v-51.71h-27.13v51.71c0,5.15-4.18,9.32-9.33,9.32h-51.71v27.13h51.71c5.15,0,9.33,4.17,9.33,9.32v51.71Z"/></svg>