<?xml version="1.0" encoding="UTF-8"?><svg id="Layer_1" xmlns="http://www.w3.org/2000/svg" viewBox="0 0 900 900"><defs><style>.cls-1{fill:#2aace2;}</style></defs><path class="cls-1" d="m558.35,408.96c-2.41,12.34-11.2,22.47-23.09,26.58-4.51,1.69-7.41,6.1-7.2,10.91l8.46,187.8c.39,3.68-.82,7.36-3.34,10.08-6.7,6.63-17.49,6.63-24.19,0-2.63-2.94-3.84-6.91-3.27-10.81l8.39-187.07c.22-4.81-2.68-9.22-7.2-10.91-11.88-4.11-20.68-14.24-23.08-26.58-2.98-16.94-1.93-34.34,3.06-50.79l7.14-23.52c5.53-14.94,22.12-22.57,37.06-17.05,7.9,2.92,14.13,9.15,17.05,17.05l7.14,23.52c4.98,16.45,6.03,33.86,3.06,50.79m18.23-57.32l-7.14-23.51c-9.07-26.7-38.07-40.99-64.78-31.92-15.02,5.11-26.82,16.9-31.92,31.92l-7.14,23.51c-6.01,19.83-7.27,40.79-3.68,61.19,3.27,17.18,14.18,31.94,29.63,40.11l-8,178.81c-1.07,9.98,2.16,19.94,8.9,27.39,14.48,15.84,39.06,16.94,54.91,2.46.86-.78,1.67-1.61,2.46-2.46,6.58-7.24,9.81-16.91,8.9-26.64l-8.04-179.58c15.44-8.18,26.32-22.93,29.59-40.09,3.59-20.4,2.32-41.36-3.68-61.19"/><path class="cls-1" d="m404.28,293.55c-6.14,0-11.12,4.98-11.12,11.12v95.52l-30.12,30.12c-2.23,2.22-3.41,5.28-3.26,8.42l9.73,194.69c.24,4.2-1.29,8.31-4.2,11.34-6.09,6.14-16.01,6.19-22.15.09-.03-.03-.07-.06-.1-.09-2.91-3.03-4.44-7.14-4.2-11.34l9.8-194.69c.15-3.14-1.03-6.2-3.25-8.42l-30.12-30.12v-95.52c0-6.14-4.98-11.12-11.13-11.12s-11.12,4.98-11.12,11.12v100.13c0,2.95,1.17,5.78,3.25,7.87l29.88,29.9-9.49,189.78c-1.01,20.73,14.97,38.36,35.7,39.36,20.73,1.01,38.36-14.97,39.36-35.7.06-1.22.06-2.44,0-3.66l-9.49-189.78,29.88-29.9c2.08-2.08,3.25-4.91,3.25-7.86v-100.13c0-6.15-4.98-11.13-11.12-11.13"/><path class="cls-1" d="m337.53,293.55c-6.14,0-11.12,4.98-11.12,11.12v89c0,6.14,4.98,11.12,11.12,11.12s11.12-4.98,11.12-11.12v-89c0-6.14-4.98-11.12-11.12-11.12"/><path class="cls-1" d="m370.9,293.55c-6.14,0-11.12,4.98-11.12,11.12v89c0,6.14,4.98,11.12,11.12,11.12s11.12-4.98,11.12-11.12v-89c0-6.14-4.98-11.12-11.12-11.12"/><path class="cls-1" d="m437.65,771.93c-172.04,0-311.5-139.46-311.5-311.5S265.61,148.92,437.65,148.92s311.5,139.46,311.5,311.5c-.19,171.96-139.54,311.31-311.5,311.5m0-645.25c-184.33,0-333.75,149.43-333.75,333.75s149.43,333.75,333.75,333.75,333.75-149.43,333.75-333.75c-.21-184.24-149.51-333.54-333.75-333.75"/><path class="cls-1" d="m473.76,669.26c-.6-6.11-6.04-10.59-12.15-9.99-.15.02-.29.03-.43.05h.04c-15.66,1.81-31.48,1.81-47.14,0-6.11-.72-11.64,3.65-12.35,9.75-.72,6.11,3.65,11.64,9.75,12.35,17.37,2.03,34.92,2.03,52.29,0,6.12-.6,10.59-6.04,9.99-12.15"/><path class="cls-1" d="m607.87,317.07c-3.95-4.71-10.97-5.33-15.67-1.38-.01.01-.03.03-.05.04-4.69,3.96-5.29,10.97-1.33,15.67,67.08,79.63,61.95,197.37-11.8,270.86-4.35,4.34-4.36,11.38-.02,15.74,4.33,4.35,11.38,4.36,15.74.03,81.96-81.65,87.68-212.48,13.15-300.97"/><path class="cls-1" d="m490.13,244.14c-43.48-10.42-89.08-7.62-130.95,8.04-5.75,2.16-8.66,8.58-6.5,14.33,1.63,4.33,5.77,7.2,10.4,7.2,1.33,0,2.65-.25,3.89-.72,37.71-14.1,78.77-16.62,117.93-7.24,5.97,1.44,11.98-2.23,13.43-8.2,1.44-5.98-2.23-11.98-8.2-13.43"/><path class="cls-1" d="m295.8,601.71c-37.5-37.44-58.53-88.3-58.4-141.29-.11-42.34,13.3-83.61,38.28-117.8,3.69-4.91,2.7-11.88-2.21-15.57-4.91-3.7-11.88-2.71-15.57,2.21-.07.09-.13.17-.19.26-64.32,88.43-54.86,210.49,22.33,287.94,4.35,4.35,11.41,4.35,15.76,0,4.35-4.35,4.36-11.41,0-15.76"/></svg>