<svg version="1.2" xmlns="http://www.w3.org/2000/svg" viewBox="0 0 106 86" width="106" height="86"><style>.a{fill:#fefefe}</style><path fill-rule="evenodd" class="a" d="m101.4 19.3c2.5 1.1 4 3.4 4 6.1 0 2.7-1.5 5-4 6l-16.7 7.2q0 0.1 0 0.2v12c0 5-3.5 9.6-9.7 13-5.9 3.2-13.7 5-22 5-8.3 0-16.2-1.8-22.1-5-6.2-3.4-9.6-8-9.6-13v-12q0-0.1 0-0.2l-8.6-3.7v22.6c1.9 0.7 3.4 2.5 3.4 4.7 0 1.3-0.5 2.4-1.3 3.3 0.9 0.8 1.4 2 1.5 3.2l1.3 13.3c0 0.9-0.3 1.8-0.9 2.5-0.6 0.6-1.5 1-2.4 1h-6.4c-0.9 0-1.7-0.4-2.3-1-0.7-0.7-1-1.6-0.9-2.5l1.2-13.3c0.1-1.2 0.7-2.4 1.6-3.2-0.8-0.9-1.3-2-1.3-3.3 0-2.2 1.4-4 3.4-4.7v-23.7q0-0.1 0-0.2l-5.1-2.2c-2.4-1-3.9-3.3-3.9-6 0-2.7 1.5-5 3.9-6.1l42.6-18.2c3.7-1.6 8-1.6 11.8 0zm-87 62.9l-1.2-13.2c-0.1-1.1-1-1.9-2.1-1.9-1.1 0-2 0.8-2.1 1.9l-1.2 13.2q0 0.1 0 0.1 0.1 0.1 0.1 0.1h6.4q0 0 0.1-0.1 0 0 0-0.1zm-1.5-20c0-1-0.8-1.8-1.8-1.8-1 0-1.8 0.8-1.8 1.8 0 1 0.8 1.7 1.8 1.7 1 0 1.8-0.7 1.8-1.7zm68.6-18.2v-4.1l-22.7 9.7c-1.9 0.8-3.9 1.2-5.9 1.2-2 0-4-0.4-5.9-1.2l-22.6-9.7v4.1c0 3.8 2.8 7.5 8 10.3 5.4 3 12.7 4.6 20.5 4.6q3.3 0 6.5-0.4c0.9-0.1 1.7 0.5 1.8 1.4 0.1 0.9-0.5 1.6-1.4 1.7-2.2 0.3-4.5 0.5-6.9 0.5-8.3 0-16.1-1.8-22-5.1-2.7-1.4-4.8-3.1-6.4-4.9 0.6 3.3 3.3 6.4 7.9 8.9 5.4 3 12.7 4.6 20.5 4.6 7.8 0 15.1-1.6 20.6-4.6 4.5-2.5 7.3-5.6 7.9-8.9-1.9 2.1-4.5 4-7.7 5.6q-0.3 0.2-0.7 0.2c-0.6 0-1.1-0.4-1.4-0.9-0.4-0.8-0.1-1.7 0.7-2.1 5.8-2.9 9.2-6.8 9.2-10.9zm18.6-15.5c1.3-0.5 2.1-1.7 2.1-3.2 0-1.4-0.8-2.6-2.1-3.1l-42.5-18.3c-1.5-0.6-3.1-0.9-4.7-0.9-1.6 0-3.1 0.3-4.6 0.9l-42.6 18.3c-1.3 0.5-2.1 1.7-2.1 3.2 0 1.4 0.8 2.6 2.1 3.1l4.8 2.1q0.2-0.1 0.3-0.1l34-5.9c0.5-2.4 3.9-4.2 8.1-4.2 4.7 0 8.3 2.1 8.3 5 0 2.8-3.6 4.9-8.3 4.9-3.3 0-6-1.1-7.3-2.7l-29.8 5.2 32.5 14c2.9 1.2 6.3 1.2 9.3 0zm-47.2-1.4c3.4 0 5.1-1.4 5.1-1.8 0-0.5-1.7-1.8-5.1-1.8-3.4 0-5.1 1.3-5.1 1.8 0 0.4 1.7 1.8 5.1 1.8z"/></svg>