<svg version="1.2" xmlns="http://www.w3.org/2000/svg" viewBox="0 0 111 87" width="111" height="87"><style>.a{fill:#fefefe}</style><path fill-rule="evenodd" class="a" d="m111 26.8c0 11.4-6.4 23.9-18.9 37.1-10 10.5-21.2 18.5-25.5 21.5-0.9 0.6-2 0.9-3 0.9-1.1 0-2.1-0.3-3-0.9-4.2-2.8-14.8-10.5-24.6-20.5h-16.3v6.5c0 2.1-1.7 3.8-3.8 3.8h-3.5c-2 0-3.7-1.7-3.7-3.8v-0.1q-0.3 0.1-0.6 0.1h-3.5c-2.1 0-3.7-1.7-3.7-3.8v-18.4c0-2.1 1.6-3.8 3.7-3.8h3.5q0.3 0 0.6 0.1v-0.2c0-2 1.7-3.7 3.7-3.7h3.5c2.1 0 3.8 1.7 3.8 3.7v6.4h5.4c-5.9-8.7-9-17.1-8.9-24.9 0-14.6 11.9-26.5 26.5-26.5q0 0 0 0c8.1 0 15.6 3.6 20.7 10 0.1 0.1 0.3 0.1 0.4 0 5-6.4 12.5-10 20.6-10q0 0 0.1 0c6.7 0 13.2 2.6 18.2 7.3 0.6 0.6 0.6 1.6 0 2.3-0.6 0.6-1.6 0.6-2.3 0-4.3-4.1-10-6.4-15.9-6.4h-0.1c-7.1 0-13.7 3.2-18.1 8.8-0.7 0.8-1.7 1.3-2.7 1.3-1.1 0-2.1-0.5-2.7-1.3-4.5-5.6-11.1-8.8-18.2-8.8-12.8 0-23.3 10.5-23.3 23.3 0 7.7 3.2 16 9.6 24.9h14.2c0.9 0 1.7 0.7 1.7 1.6 0 0.9-0.8 1.6-1.7 1.6h-23.5v6.8h35.9v-6.8h-5.1c-0.9 0-1.6-0.7-1.6-1.6 0-0.9 0.7-1.6 1.6-1.6h5.1v-6.4c0-2 1.7-3.7 3.8-3.7h3.5c2.1 0 3.7 1.7 3.7 3.7v0.2q0.3-0.1 0.6-0.1h3.5c2.1 0 3.8 1.7 3.8 3.8v18.4c0 2.1-1.7 3.8-3.8 3.8h-3.5q-0.3 0-0.6-0.1v0.1c0 2.1-1.6 3.8-3.7 3.8h-3.5c-2.1 0-3.8-1.7-3.8-3.8v-6.5h-15c8.9 8.7 18 15.3 21.8 17.8 0.7 0.5 1.6 0.5 2.3 0 4.3-2.9 15.3-10.7 25-21 12-12.6 18.1-24.3 18.1-34.9 0-4-1.1-7.9-3-11.3-0.5-0.8-0.2-1.8 0.6-2.2 0.8-0.5 1.8-0.2 2.2 0.6 2.2 3.9 3.4 8.4 3.4 12.9zm-44.4 22.4v18.4c0 0.3 0.3 0.5 0.6 0.5h3.5c0.3 0 0.5-0.2 0.5-0.5v-18.4c0-0.3-0.2-0.5-0.5-0.5h-3.5c-0.3 0-0.6 0.2-0.6 0.5zm-7.8 22.2c0 0.3 0.3 0.6 0.6 0.6h3.5c0.3 0 0.5-0.3 0.5-0.6v-26.1c0-0.3-0.2-0.5-0.5-0.5h-3.5c-0.3 0-0.6 0.2-0.6 0.5zm-42.3-26.1c0-0.3-0.3-0.5-0.6-0.5h-3.5c-0.3 0-0.5 0.2-0.5 0.5v5.9c0 0.9-0.7 1.6-1.6 1.6-0.9 0-1.6-0.7-1.6-1.6v-2c0-0.3-0.3-0.5-0.6-0.5h-3.5c-0.3 0-0.5 0.2-0.5 0.5v18.4c0 0.3 0.2 0.5 0.5 0.5h3.5c0.3 0 0.6-0.2 0.6-0.5v-8.9c0-0.9 0.7-1.6 1.6-1.6 0.9 0 1.6 0.7 1.6 1.6v12.7c0 0.3 0.2 0.6 0.5 0.6h3.5c0.3 0 0.6-0.3 0.6-0.6z"/></svg>