<svg version="1.2" xmlns="http://www.w3.org/2000/svg" viewBox="0 0 102 102" width="102" height="102"><style>.a{fill:#fefefe}</style><path fill-rule="evenodd" class="a" d="m99.9 65.2c-0.8 0-1.5-0.6-1.5-1.5v-8.2c0-3.6-2.9-6.5-6.4-6.5h-7.6l-1.6 7.3c-0.1 0.6-0.5 1-1 1.1q-0.2 0.1-0.4 0.1c-0.4 0-0.8-0.2-1.1-0.4l-4.2-4.3-4.3 4.3c-0.3 0.2-0.7 0.4-1 0.4q-0.3 0-0.5-0.1c-0.5-0.1-0.9-0.5-1-1.1l-1.5-7.3h-5.2c-1.3 2.2-3.1 4-5.3 5.2v3.3l1.3 0.9h8.3c5.2 0 9.4 4.2 9.4 9.4v18.4h14.2v-22.2c0-0.8 0.6-1.5 1.5-1.5 0.8 0 1.4 0.7 1.4 1.5v22.2h5v-15.6c0-0.8 0.7-1.4 1.5-1.4 0.8 0 1.5 0.6 1.5 1.4v17c0 0.9-0.7 1.5-1.5 1.5h-23.6v10.9c0 0.8-0.6 1.4-1.4 1.4h-47.7c-0.8 0-1.5-0.6-1.5-1.4v-10.9h-23.5c-0.8 0-1.5-0.6-1.5-1.5v-32.1c0-4.6 3.3-8.5 7.7-9.3v-4.3c0-0.9 0.7-1.5 1.5-1.5 0.8 0 1.5 0.6 1.5 1.5v4.2h8.4v-4.3c-3.8-2-6.5-5.8-7-10.3h-0.6q-0.4 0-0.8 0v3.5c0 0.8-0.7 1.5-1.5 1.5-0.8 0-1.5-0.7-1.5-1.5v-5c-1-1-1.6-2.4-1.6-3.9 0-1.6 0.6-2.9 1.6-3.9v-3.8c0-9.7 7.9-17.6 17.6-17.6 4.7 0 9.1 1.8 12.4 5.1 2.3 2.3 3.9 5.1 4.7 8.2 1.6-0.7 3.4-1 5.2-1h8.8q0.8 0 1.5 0.1c0.9-7 6.8-12.4 14.1-12.4h6.8c7.8 0 14.1 6.3 14.1 14.2v7.2c1.1 1 1.7 2.3 1.7 3.9 0 3-2.4 5.4-5.4 5.4h-0.6c-0.5 4.5-3.2 8.3-7 10.3v3.4l1.3 0.9h8.4c5.1 0 9.4 4.2 9.4 9.4v8.2c0 0.9-0.7 1.5-1.5 1.5zm-20.5-22.2q-1.7 0.4-3.4 0.4-1.7 0-3.2-0.3v2.2l3.3 3.3 3.3-3.3zm-15.1-2.1h0.5c1.4 0 2.5-1.1 2.5-2.5 0-1.4-1.1-2.5-2.5-2.5q-0.2 0-0.5 0.1zm11.7-0.4c5.7 0 10.4-4.7 10.4-10.5v-7.2l-1.3-4.2c-0.2-0.9-1.1-1.6-2-1.6h-14c-1 0-1.8 0.7-2.1 1.6l-0.6 1.8c1.4 2.1 2.2 4.7 2.2 7.3v6.8c1 0.9 1.7 2.3 1.7 3.9q0 0.2 0 0.4c1.7 1.1 3.6 1.7 5.7 1.7zm16.4-14.4c0-1.4-1.2-2.5-2.5-2.5q-0.3 0-0.5 0v5h0.5c1.3 0 2.5-1.2 2.5-2.5zm-19.7-22.4c-6.1 0-11 4.8-11.2 10.7 1.1 0.8 2 1.9 2.6 3.3h0.1c0.6-2.1 2.6-3.6 4.9-3.6h14c2.2 0 4.2 1.5 4.9 3.6l0.9 3q0.5-0.1 1-0.1 0.4 0 0.8 0.1v-5.7c0-6.2-5-11.3-11.2-11.3h-6.8zm-24.4 12.3c-6.5 0-11.9 5.4-11.9 11.9v5.1q0.3-0.1 0.6-0.1c0.8 0 1.6 0.2 2.4 0.6 5.5-0.1 8.9-1.3 10.9-2.3 2.1-1.1 2.9-2.2 3-2.2 0.3-0.5 1-0.8 1.6-0.6 0.6 0.2 1 0.8 1 1.5q0 0.6-0.1 1.2 2.2-0.5 4.1-1.9c0.4-0.2 0.8-0.3 1.2-0.2 0.5 0.1 0.8 0.4 1 0.8l1.5 3.3q0.6-0.2 1.2-0.2 0.5 0 0.9 0.1v-5.3c0-2.9-1.2-5.7-3.4-7.7l-0.4-0.4q-0.3-0.2-0.4-0.6c-0.7-1.8-2.5-3-4.4-3zm-16.1 30h5.9q-0.4-1-0.5-2.2h-0.6c-1.7 0-3.3-0.8-4.3-2.1q-0.2 0.1-0.5 0.2zm5.3-10.1q-0.2 0-0.5 0c-1.4 0-2.5 1.1-2.5 2.5 0 1.4 1.1 2.5 2.5 2.5h0.5zm-26.1-17.6v2.3q0.4 0 0.8 0c0.8 0 1.6 0.1 2.3 0.5h5.2c2.7 0 5.3-1.1 7.1-3l2.5-2.6c1-0.9 2.3-1.5 3.7-1.5 2.1 0 4.1 1.4 4.8 3.4q1.1-1.2 2.5-2.1c-0.5-2.7-1.9-5.3-4-7.4-2.7-2.7-6.4-4.2-10.3-4.2-8.1 0-14.6 6.5-14.6 14.6zm0.8 10.2h0.5v-4.9q-0.2-0.1-0.5-0.1c-1.4 0-2.5 1.1-2.5 2.5 0 1.4 1.1 2.5 2.5 2.5zm3.5 1.5c0 5.7 4.6 10.4 10.4 10.4 2 0 3.9-0.5 5.5-1.5q0-0.3 0-0.6c0-1.6 0.7-3.1 1.8-4.1v-6.3c0-2.8 0.8-5.5 2.2-7.7l-0.5-1.7c-0.3-0.9-1.2-1.6-2.1-1.6-0.6 0-1.2 0.3-1.6 0.7l-2.5 2.6c-2.4 2.4-5.7 3.8-9.2 3.8h-4zm0.9 19q0 0.2 0.1 0.4 0.4 0.9 1.1 1.6l4.7 4.7c1 1 2.2 1.5 3.5 1.5 1.3 0 2.5-0.5 3.4-1.5l4.8-4.7q0.9-0.9 1.2-2h-4.6c-0.9 0-1.5-0.7-1.5-1.5v-4.5q-1.6 0.4-3.2 0.4-1.8 0-3.4-0.4v4.5c0 0.8-0.7 1.5-1.5 1.5zm10.6 33.3c0.9 0 1.5 0.6 1.5 1.4v14.8h5v-22.2c0-0.8 0.7-1.5 1.5-1.5 0.8 0 1.5 0.7 1.5 1.5v22.2h11.1l-2.6-2.9c-0.3-0.4-0.4-0.8-0.4-1.2l3.1-22.7-1.4-2.1c-0.3 0.2-0.8 0.3-1.2 0.1-0.5-0.1-0.9-0.5-1-1.1l-1.5-7.3h-7.6c-3.6 0-6.5 2.9-6.5 6.5v9.1c0 0.8-0.6 1.4-1.5 1.4-0.8 0-1.4-0.6-1.4-1.4v-9.1c0-5.2 4.2-9.4 9.4-9.4h8.3l1.3-0.9v-3.3c-2.3-1.1-4.2-3-5.4-5.2h-0.9c-0.3 1.5-1 2.9-2.1 4.1l-4.8 4.7c-1.5 1.5-3.5 2.3-5.6 2.3-2 0-4-0.8-5.5-2.3l-4.8-4.7q-1.1-1.1-1.7-2.6-0.3-0.7-0.4-1.5h-3.4c-3.6 0-6.5 2.9-6.5 6.5v30.7h5v-22.2c0-0.8 0.6-1.5 1.5-1.5 0.8 0 1.4 0.7 1.4 1.5v22.2h14.2v-2.5c0-0.8 0.6-1.4 1.4-1.4zm21.5-14.8l1.6 2.4h1.6l1.6-2.4-2.4-2.4zm5.6 26.6l-2.9-21.3h-0.6l-3 21.3 3.3 3.7zm-1.2-31.1l2.4 2.3 1-4.9-0.5-0.3zm-4.2 0l-2.8-2.9-0.5 0.4 1 4.8zm24.4 4.8c0-3.6-2.9-6.5-6.5-6.5h-7.5l-1.6 7.3c-0.1 0.6-0.5 1-1 1.2-0.4 0.1-0.8 0-1.2-0.2l-1.4 2.1 3.1 22.7c0 0.4-0.1 0.9-0.4 1.2l-2.6 2.9h11.2v-22.2c0-0.8 0.6-1.4 1.4-1.4 0.9 0 1.5 0.6 1.5 1.4v22.2h5zm-19-12.5q-1.7 0.5-3.4 0.5-1.7 0-3.2-0.4v2.3l3.3 3.3 3.3-3.3zm-3.4-2.5c5.7 0 10.4-4.7 10.4-10.5v-7.1l-1.3-2.7c-1.5 0.9-3.3 1.4-5 1.6-0.9 0.2-1.7-0.2-2.2-0.9q0 0 0-0.1c-2.3 1.4-6.2 3-12.4 3.2v6c0 5.8 4.7 10.5 10.5 10.5zm18.8-7.7v-3.2q-0.3-0.2-0.6-0.3c-0.9 1.3-2.5 2.2-4.3 2.2h-0.6q-0.2 1.1-0.5 2.2h4.7zm4.2 5.5l-2.9-2.8-0.5 0.3 1 4.9zm7.6-2.5l-0.5-0.4-2.9 2.9 2.4 2.3z"/></svg>