<svg version="1.2" xmlns="http://www.w3.org/2000/svg" viewBox="0 0 110 110" width="110" height="110"><style>.a{fill:#fefefe}</style><path fill-rule="evenodd" class="a" d="m78.7 47.2c-0.6 2.8-2.4 5.2-4.9 6.5l1.3 29.4c0.2 1.6-0.4 3.2-1.4 4.4q-0.2 0.2-0.4 0.4c-2.6 2.3-6.7 2.2-9-0.4-1.1-1.2-1.7-2.9-1.5-4.5l1.3-29.3c-2.5-1.3-4.3-3.7-4.8-6.5-0.6-3.4-0.4-6.8 0.6-10.1l1.2-3.8c0.8-2.5 2.7-4.4 5.2-5.2 4.3-1.5 9.1 0.8 10.6 5.2l1.1 3.8c1 3.3 1.2 6.7 0.7 10.1zm-4.1-9l-1.2-3.8c-0.5-1.3-1.5-2.3-2.8-2.8-2.4-0.9-5.2 0.3-6.1 2.8l-1.1 3.8c-0.8 2.7-1 5.6-0.5 8.3 0.4 2 1.8 3.7 3.7 4.4 0.8 0.3 1.3 1 1.2 1.8l-1.3 30.6c-0.1 0.6 0.1 1.3 0.5 1.8 1.1 1 2.8 1 3.9 0 0.5-0.5 0.7-1.1 0.6-1.7l-1.4-30.7c0-0.8 0.4-1.5 1.2-1.8 1.9-0.7 3.4-2.4 3.8-4.4 0.5-2.7 0.3-5.6-0.5-8.3z"/><path class="a" d="m49.8 27.6c-1 0-1.8 0.9-1.8 1.9v15.6l-4.9 4.9c-0.4 0.4-0.6 0.9-0.5 1.4l1.6 31.9c0 0.7-0.3 1.3-0.7 1.8-1 1-2.7 1-3.7 0q0 0 0 0c-0.5-0.5-0.7-1.1-0.7-1.8l1.6-31.9c0.1-0.5-0.1-1-0.5-1.4l-4.9-4.9v-15.6c0-1-0.8-1.9-1.8-1.9-1 0-1.9 0.9-1.9 1.9v16.3c0 0.5 0.2 1 0.6 1.3l4.9 4.9-1.6 31.1c-0.2 3.4 2.5 6.3 5.9 6.4 3.3 0.2 6.2-2.4 6.4-5.8q0-0.3 0-0.6l-1.6-31.1 4.9-4.9c0.4-0.3 0.6-0.8 0.6-1.3v-16.3c0-1-0.8-1.9-1.9-1.9z"/><path class="a" d="m38.9 27.6c-1 0-1.8 0.9-1.8 1.9v14.5c0 1 0.8 1.8 1.8 1.8 1 0 1.8-0.8 1.8-1.8v-14.5c0-1-0.8-1.9-1.8-1.9z"/><path class="a" d="m44.4 27.6c-1 0-1.8 0.9-1.8 1.9v14.5c0 1 0.8 1.8 1.8 1.8 1 0 1.8-0.8 1.8-1.8v-14.5c0-1-0.8-1.9-1.8-1.9z"/><path fill-rule="evenodd" class="a" d="m109.9 55c0 30.1-24.4 54.6-54.6 54.6-30.2 0-54.6-24.5-54.6-54.6 0-30.2 24.4-54.7 54.6-54.7 30.2 0.1 54.6 24.5 54.6 54.7zm-3.6 0c0-28.2-22.8-51-51-51-28.2 0-51 22.8-51 51 0 28.1 22.8 50.9 51 50.9 28.2 0 51-22.8 51-50.9z"/><path class="a" d="m61.2 89.1c-0.1-1-1-1.7-2-1.6q0 0 0 0-3.9 0.4-7.7 0c-1-0.1-2 0.6-2.1 1.6-0.1 1 0.6 1.9 1.6 2q4.3 0.5 8.6 0c1-0.1 1.7-1 1.6-2z"/><path class="a" d="m83.2 31.5c-0.7-0.8-1.8-0.9-2.6-0.2q0 0 0 0c-0.8 0.6-0.9 1.8-0.2 2.5 11 13.1 10.1 32.3-2 44.4-0.7 0.7-0.7 1.8 0 2.5 0.8 0.8 1.9 0.8 2.6 0 13.4-13.3 14.4-34.7 2.2-49.2z"/><path class="a" d="m63.9 19.5c-7.1-1.7-14.6-1.2-21.4 1.4-1 0.3-1.5 1.4-1.1 2.3 0.3 0.7 0.9 1.2 1.7 1.2q0.3 0 0.6-0.1c6.2-2.3 12.9-2.7 19.3-1.2 1 0.2 2-0.4 2.2-1.4 0.3-0.9-0.3-1.9-1.3-2.2z"/><path class="a" d="m32.1 78.1c-6.1-6.2-9.6-14.5-9.6-23.1 0-7 2.2-13.7 6.3-19.3 0.6-0.8 0.4-2-0.4-2.6-0.8-0.6-1.9-0.4-2.5 0.4q0 0 0 0c-10.6 14.5-9 34.5 3.6 47.2 0.7 0.7 1.9 0.7 2.6 0 0.7-0.8 0.7-1.9 0-2.6z"/></svg>