<svg version="1.2" xmlns="http://www.w3.org/2000/svg" viewBox="0 0 96 93" width="96" height="93"><style>.a{fill:#fefefe}</style><path fill-rule="evenodd" class="a" d="m41.1 76.5c1.9 0.6 3.3 2.4 3.3 4.5v6.7c0 2.6-2.1 4.7-4.7 4.7h-21.5c-2.5 0-4.6-2.1-4.6-4.7v-6.7c0-2.1 1.3-3.9 3.2-4.5v-0.5c0-4-4.9-8.2-8.1-11q-0.9-0.8-1.6-1.4l-0.1-0.1c-3.8-3.4-6.2-5.6-6-12.7 0.1-1 0.9-1.8 2-1.7 1 0 1.8 0.9 1.7 1.9-0.1 5.3 1.3 6.6 4.8 9.8h0.1c0.4 0.4 0.9 0.9 1.5 1.4 3.7 3.2 9.4 8 9.4 13.8v0.3h16.9v-3.5c-0.1-2.7-0.1-5.4-0.8-8.1-1.3-4.8-3.7-8.4-11.1-10.4l-0.1-0.1c-1.4-0.3-2.2-0.7-3.1-2.3l-4.9-7.8c-0.4-0.7-1-1.1-1.7-1.3-0.7-0.1-1.4 0-2.1 0.4-1.2 0.8-1.6 2.4-0.9 3.7l7.9 12.8c0.6 0.9 0.3 2-0.6 2.6-0.9 0.5-2 0.2-2.6-0.6l-7.8-12.8c-1.9-3.1-0.9-7 2.1-8.9q0.5-0.4 1.1-0.6l-1.1-14.9c-0.1-1.4-1-2.8-2.6-2.8-1.4 0-2.5 1.2-2.6 2.7l-0.6 9.9c-0.1 1.1-1 1.8-2 1.8-1-0.1-1.8-1-1.8-2l0.7-9.9c0.2-3.5 3-6.2 6.3-6.2q0 0 0 0c3.3 0 6 2.7 6.3 6.2l1.2 15c1.7 0.4 3.1 1.4 4 2.9l4.8 7.9c0.1 0.1 0.2 0.4 0.4 0.5 0.2 0.1 0.5 0.1 0.7 0.2 7.7 2.1 11.8 6 13.7 13 0.8 3.2 0.9 6.1 0.9 9q0 0.1 0 0.1zm-23.8 11.2c0 0.5 0.4 1 0.9 1h21.5c0.5 0 1-0.5 1-1v-6.8c0-0.5-0.5-0.9-1-0.9h-21.5c-0.5 0-0.9 0.4-0.9 0.9z"/><path fill-rule="evenodd" class="a" d="m95.4 50.4c0.2 7-2.2 9.3-6 12.6l-0.1 0.1q-0.7 0.7-1.6 1.4c-3.2 2.8-8.1 7-8.1 11v0.5c1.9 0.6 3.2 2.4 3.2 4.5v6.8c0 2.5-2.1 4.6-4.7 4.6h-21.4c-2.6 0-4.7-2.1-4.7-4.6v-6.8c0-2.1 1.4-3.9 3.2-4.5v-3.7q0 0 0 0c0.1-2.9 0.2-5.9 1-9 1.9-7.1 6-11 13.7-13.1 0.2-0.1 0.5-0.1 0.7-0.2 0.1-0.1 0.3-0.3 0.4-0.5l4.8-7.9c0.9-1.4 2.3-2.5 4-2.9l1.2-15c0.3-3.5 3-6.2 6.3-6.2q0 0 0 0c3.3 0 6 2.7 6.3 6.2l1.8 26.6q0 0 0 0.1zm-16.3 30.1c0-0.5-0.4-1-1-1h-21.4c-0.5 0-1 0.5-1 1v6.8c0 0.5 0.5 0.9 1 0.9h21.4c0.6 0 1-0.4 1-0.9zm7.8-20.2c3.5-3.2 4.9-4.5 4.7-9.8l-1.7-26.6c-0.1-1.5-1.3-2.7-2.6-2.7-1.6 0-2.5 1.4-2.6 2.8l-1.2 14.9q0.6 0.2 1.2 0.6c1.5 0.9 2.5 2.3 2.9 4 0.4 1.7 0.1 3.4-0.8 4.9l-7.9 12.8c-0.5 0.8-1.6 1.1-2.5 0.6-0.9-0.6-1.2-1.7-0.6-2.6l7.8-12.8c0.4-0.6 0.5-1.3 0.4-2-0.2-0.8-0.6-1.4-1.3-1.7q-0.5-0.4-1.2-0.4 0 0 0 0-0.4-0.1-0.8 0c-0.7 0.2-1.3 0.6-1.7 1.3l-4.9 7.8c-0.9 1.6-1.7 2-3.1 2.3l-0.1 0.1c-7.4 2-9.8 5.6-11.1 10.4-0.7 2.7-0.8 5.4-0.8 8.1v3.5h16.9v-0.3c0-5.8 5.6-10.6 9.4-13.8 0.6-0.5 1.1-1 1.5-1.4z"/><path fill-rule="evenodd" class="a" d="m22.9 37.9c-1 0-1.9-0.9-1.9-1.9v-3c0-5.7 3-11 7.7-14-1.6-2-2.5-4.5-2.5-7.2 0-6.4 5.2-11.6 11.6-11.6 4.1 0 7.7 2 9.8 5.3 2.1-3.3 5.8-5.3 9.8-5.3 6.4 0 11.7 5.2 11.7 11.6 0 2.7-1 5.2-2.5 7.2 4.7 3 7.6 8.3 7.6 14v3c0 1-0.8 1.9-1.8 1.9h-8.3q0.3 1.5 0.3 3.2v2.9c0 1.1-0.8 1.9-1.8 1.9h-29.9c-1.1 0-1.9-0.8-1.9-1.9v-2.9q0-1.7 0.3-3.2zm37.8 4.3v-1.1c0-4.8-2.6-9.2-6.7-11.5-1.9 1.2-4 1.9-6.3 1.9-2.4 0-4.5-0.7-6.3-1.9-4.2 2.3-6.8 6.7-6.8 11.5v1.1zm9.8-9.2c0-4.7-2.7-9.1-6.8-11.4-1.5 0.9-3.2 1.6-5 1.8-0.4 1.3-1.1 2.5-1.9 3.6 2.7 1.8 4.8 4.3 6.1 7.1h7.6zm-20.3-24.5c5.1 1.1 8.9 5.6 9 11 3.5-0.9 6.1-4 6.1-7.7 0-4.4-3.6-7.9-7.9-7.9-3.2 0-6 1.8-7.2 4.6zm-10.5 11.3c0 4.4 3.5 7.9 7.9 7.9 4.4 0 7.9-3.5 7.9-7.9 0-4.3-3.5-7.9-7.9-7.9-4.4 0-7.9 3.6-7.9 7.9zm-9.8-8c0 3.7 2.6 6.8 6.1 7.7 0.1-5.4 3.9-9.9 9-11-1.3-2.8-4-4.6-7.2-4.6-4.4 0-7.9 3.5-7.9 7.9zm-5.2 22.3h7.6c1.3-2.9 3.4-5.3 6.1-7.1-0.8-1.1-1.5-2.3-1.9-3.6-1.8-0.3-3.5-0.9-5-1.8-4.1 2.3-6.8 6.7-6.8 11.4z"/><path class="a" d="m2.3 44c1 0 1.9-0.9 1.9-1.9 0-1.1-0.9-1.9-1.9-1.9-1 0-1.9 0.8-1.9 1.9 0 1 0.9 1.9 1.9 1.9z"/></svg>