<svg version="1.2" xmlns="http://www.w3.org/2000/svg" viewBox="0 0 91 90" width="91" height="90"><style>.a{fill:#fefefe}</style><path fill-rule="evenodd" class="a" d="m48.8 90.1c-0.8-0.2-1.7-0.4-2.6-0.7-6.1-1.9-10.1-7.4-10.1-13.8 0-5.9 0-11.8 0-17.7 0-4.7-3-8.6-7.3-9.7-6.1-1.6-12 2.7-12.3 9-0.1 2 0 4.1 0 6.1 0 0.2 0.4 0.5 0.6 0.6 6.4 1.8 10.2 7.2 9.9 13.8-0.3 5.7-5.1 11-10.8 11.9-7.7 1.1-14.3-3.8-15.4-11.5-0.8-6.1 3.4-12.3 9.4-14 0.9-0.2 1.1-0.6 1.1-1.5 0-2.4-0.1-4.9 0.2-7.3 0.7-6.3 6.2-11.7 12.5-12.5 8.2-1.1 15.3 3.9 17 11.9 0.2 0.9 0.3 1.9 0.3 2.9 0 5.9 0 11.8 0 17.7 0 4.3 2.5 7.8 6.5 9.1 5.8 1.9 11.9-2.5 12.1-8.6 0-1.4-0.2-2.7-0.8-4-2.2-5.1-4.4-10.3-6.6-15.4-0.1-0.4-0.4-0.8-0.8-1-5.1-3.1-8.2-7.6-9.8-13.3-2.2-7.7-4.3-15.4-6.6-23.1-2-6.8 2.2-13.2 8.3-14.6 1.3-0.2 2.6-0.2 4-0.4 0-0.1 0-0.4 0-0.6 0.1-1.6 1.2-2.7 2.6-2.7 1.5 0 2.7 1 2.7 2.6q0 3.5 0 6.9c0 1.6-1.1 2.7-2.6 2.7-1.5 0-2.6-1.1-2.7-2.7q0-0.3 0-0.7c-4.4-1-8.5 3-7.4 7.4 1.9 7 4 13.9 5.9 20.8q0.6 2 1.2 4c1.9 6.6 8.1 11.2 14.9 11.4 7.2 0.1 13.6-4.7 15.6-11.8 2.3-7.8 4.4-15.7 6.8-23.5 1.4-4.6-1.9-9.1-7.2-8.3q0 0.4-0.1 0.9c-0.1 1.4-1.1 2.5-2.5 2.5-1.4 0-2.6-1-2.7-2.4q-0.1-3.7 0-7.4c0.1-1.4 1.3-2.4 2.7-2.4 1.3 0 2.4 1 2.5 2.4q0.1 0.5 0.1 0.9c1.4 0.2 2.7 0.1 4 0.5 4.8 1.2 7.6 4.2 8.7 9.1 0 0.1 0.1 0.2 0.1 0.3q0 1.6 0 3.2-0.1 0.5-0.3 1c-2.4 8.4-4.7 16.8-7.2 25.2-1.5 5.2-4.7 9.2-9.3 12-0.4 0.3-0.8 0.7-0.9 1.2-2.1 4.8-4.1 9.6-6.2 14.5-0.8 1.7-1.2 3.3-1.2 5.2-0.2 5.9-4 11.1-9.6 13-1 0.4-2.1 0.6-3.2 0.9q-1.7 0-3.5 0zm-27-13.4c0-4.3-3.6-7.9-7.8-7.9-4.3 0-7.9 3.5-8 7.8 0 4.3 3.6 7.9 7.9 7.9 4.2 0 7.8-3.5 7.9-7.8zm37.2-18.5c1.2 2.7 2.3 5.4 3.5 8.2 1.2-2.9 2.3-5.5 3.5-8.2-2.4 0-4.6 0-7 0z"/></svg>